<svg id="Layer_1" data-name="Layer 1" xmlns="http://www.w3.org/2000/svg" viewBox="0 0 48 48"><defs><style>.cls-1{fill:#0a1e35;}.cls-2{fill:#13273e;}.cls-3{fill:#fdbd04;}.cls-4{fill:#e1b332;}.cls-5{fill:#d2ab37;}.cls-6{fill:#483109;}.cls-7{fill:#da8824;}.cls-8{fill:#f7f8f9;}.cls-9{fill:#1d293b;}.cls-10{fill:#0c0500;}.cls-11{fill:#132235;}.cls-12{fill:#020712;}.cls-13{fill:#fd8d03;}.cls-14{fill:#8d6e17;}</style></defs><rect class="cls-1" width="48" height="48"/><path class="cls-2" d="M24,23.8c0,.13.1.3-.09.4" transform="translate(0)"/><path class="cls-2" d="M24,23.8s.1-.05.1,0,0,.24,0,.36" transform="translate(0)"/><path class="cls-3" d="M24.15,20.14h-.28c-.1-.08-.12,0-.11.06h0l-.16.12h0a.71.71,0,0,0-.77.6h0a1,1,0,0,0-1,.75h0A2.81,2.81,0,0,0,20.05,23h0a1.1,1.1,0,0,0-1.09.83h0a.73.73,0,0,0-.78.6v0a1,1,0,0,0-1,.76h0A1.18,1.18,0,0,0,16.1,26h0c-.31,0-.53.06-.55.42h0a.68.68,0,0,0-.78.6v0c-.1,0-.15,0-.15.12l0,0,0,0c-.23,0-.46-.08-.37.29l0,0c-.32-.12-.43.06-.47.33h0c-.78.15-1.22.81-1.85,1.19-.18.11-.38.22-.29.47s.31.24.51.24c.57,0,1.12-.14,1.69-.14s.76.17.76.75q0,6.27,0,12.54c0,.53-.18.65-.67.65-2.18,0-4.37,0-6.55,0-.59,0-.71-.2-.71-.75q0-18.78,0-37.57c0-.58.19-.72.74-.72,2.91,0,5.82,0,8.73,0,.64,0,.79.2.78.81,0,4.29,0,8.59,0,12.88,0,.27-.08.55.12.79.15.41.5.25.76.25H30.2c.89,0,.89,0,.89-.93,0-4.36,0-8.72,0-13.09,0-.56.16-.73.73-.73,2.86,0,5.72,0,8.58,0,.94,0,.94,0,.94.91q0,12.3,0,24.6h-.15L36.4,27.19q-2.9-1.68-5.8-3.35c-1.05-.6-2.13-1.17-3.19-1.75-.18-.11-.34-.23-.52-.32a8.78,8.78,0,0,0-2.1-1.16h0a.34.34,0,0,0-.39-.31h0l-.16-.1h0C24.25,20.12,24.22,20.09,24.15,20.14Z" transform="translate(0)"/><path class="cls-4" d="M17,19c-.2-.24-.12-.52-.12-.79,0-4.29,0-8.59,0-12.88,0-.61-.14-.82-.78-.81-2.91,0-5.82,0-8.73,0-.55,0-.74.14-.74.72q0,18.78,0,37.57c0,.55.12.76.71.75,2.18,0,4.37,0,6.55,0,.49,0,.68-.12.67-.65q0-6.27,0-12.54c0-.58-.21-.74-.76-.75s-1.12.15-1.69.14c-.2,0-.43,0-.51-.24s.11-.36.29-.47c.63-.38,1.07-1,1.85-1.19l-1.52,1.28c-.13.09-.36.09-.3.39h2.86V43.73H6.47l0,0,0,0v-.21c.07-.06.07-.11,0-.17,0-2.84,0-5.68,0-8.52q0-15.09,0-30.18a.2.2,0,0,0,0-.3.2.2,0,0,1,0-.11c2.76,0,5.51,0,8.27,0a11,11,0,0,1,2.3.06Q17.05,11.61,17,19Z" transform="translate(0)"/><path class="cls-5" d="M17,19q0-7.35,0-14.69h.1q0,7,0,14c0,.51.1.69.66.69q6.2,0,12.39,0c.55,0,.67-.17.66-.69q0-7,0-14l.13,0c3.25,0,6.49,0,9.74,0,.61,0,.8.14.8.78,0,7.25,0,14.49,0,21.74,0,1.09,0,2.18,0,3.27h-.14q0-12.3,0-24.6c0-.91,0-.91-.94-.91-2.86,0-5.72,0-8.58,0-.57,0-.73.17-.73.73,0,4.37,0,8.73,0,13.09,0,.93,0,.93-.89.93H17.8C17.54,19.2,17.19,19.36,17,19Z" transform="translate(0)"/><path class="cls-6" d="M41.48,30c0-1.09,0-2.18,0-3.27,0-7.25,0-14.49,0-21.74,0-.64-.19-.79-.8-.78-3.25,0-6.49,0-9.74,0A2.21,2.21,0,0,1,32.08,4h8.69c.57,0,1,.11,1,.81q0,8.39,0,16.76,0,11.12,0,22.21l-.12.15h-.12l0-.15Z" transform="translate(0)"/><path class="cls-7" d="M41.48,30l0,13.76-8.29,0h0c0-2.44,0-4.89,0-7.33s0-4.62,0-6.92l3,0,0,0c-.4.47-.93.22-1.39.23-1.29,0-1.36.09-1.37,1.4,0,3.89,0,7.77,0,11.66,0,.62.2.76.78.75,2.09,0,4.18,0,6.26,0,.61,0,.77-.17.77-.77,0-4.25,0-8.49,0-12.74h.29Z" transform="translate(0)"/><path class="cls-8" d="M20.34,31.87a.11.11,0,0,0-.06-.11l.07-3.13a.09.09,0,0,0,.11,0l3,0h0a16,16,0,0,1,0,3.24l0,0Z" transform="translate(0)"/><path class="cls-8" d="M20.33,36.09a.09.09,0,0,0,0-.11l.07-3.12h3.11l.06.13v3a.09.09,0,0,0-.06.11Z" transform="translate(0)"/><path class="cls-8" d="M27.68,32.87l.06.13-.07,3.09h-3.1l0,0a14.13,14.13,0,0,1,0-3.25h3.11Z" transform="translate(0)"/><path class="cls-9" d="M23.52,33l-.06-.13c-.16-.23-.41-.15-.62-.15H20.33c.44-.26.92-.11,1.39-.12.87,0,1.74,0,2.61-.1-.45-.46-1-.2-1.53-.29a11.27,11.27,0,0,0-1.84,0c-.21,0-.46.07-.63-.14.79,0,1.59,0,2.38,0,.25,0,.55.13.75-.17l0,0c.39,0,.31-.31.31-.55,0-.9,0-1.8,0-2.7h.54c0,.89,0,1.79,0,2.69,0,.22-.09.52.28.57a7.3,7.3,0,0,0,3.12,0H28a1.34,1.34,0,0,1-.27.82c-.56,0-1.13,0-1.69,0s-1-.18-1.44.14h0c-.17,0-.29.11-.29.31,0,.89,0,1.77,0,2.66,0,.2.14.27.31.28l0,0,.11.19c0,.07-.1.21-.13.21-1.28-.22-2.57,0-3.84-.14,0,0-.07-.05-.11-.08.61,0,1.23,0,1.84,0,.34,0,.72.17,1-.17a.09.09,0,0,1,.06-.11.27.27,0,0,0,.23-.29V33.3A.27.27,0,0,0,23.52,33Z" transform="translate(0)"/><path class="cls-10" d="M30.85,4.25q0,7,0,14c0,.52-.11.69-.66.69q-6.19,0-12.39,0c-.56,0-.67-.18-.66-.69q0-7,0-14c.21.06.17.24.19.38q0,6.8,0,13.59c0,.2-.06.41.13.57h.28c4.07,0,8.14,0,12.2,0,.61,0,.76-.17.76-.77,0-4.61,0-9.22,0-13.83Z" transform="translate(0)"/><path class="cls-10" d="M6.47,43.51v.21l-.18,0c0-.66,0-1.32,0-2v-37c0-.2-.07-.44.2-.54a.2.2,0,0,0,0,.11v.3q0,15.09,0,30.18c0,2.84,0,5.68,0,8.52Z" transform="translate(0)"/><path class="cls-9" d="M6.28,4.77v37c0,.66,0,1.32,0,2-.29,0-.14-.28-.14-.41v-38C6.15,5.14,6.1,4.93,6.28,4.77Z" transform="translate(0)"/><path class="cls-9" d="M41.71,43.74q0-11.1,0-22.21,0-8.37,0-16.76c.23.2.14.47.14.71V43.06C41.87,43.29,42,43.56,41.71,43.74Z" transform="translate(0)"/><path class="cls-9" d="M30.69,4.22c0,4.61,0,9.22,0,13.83,0,.6-.15.77-.76.77-4.06,0-8.13,0-12.2,0,.24-.21.53-.11.79-.12,3.75,0,7.5,0,11.25,0,.64,0,.79-.2.79-.81,0-4.3,0-8.59,0-12.89C30.56,4.73,30.46,4.44,30.69,4.22Z" transform="translate(0)"/><path class="cls-2" d="M15,29.45c.23.19.14.46.14.7q0,6.45,0,12.91c0,.24.09.51-.14.7Z" transform="translate(0)"/><path class="cls-10" d="M15,29.45V43.76l-.17,0V29.48Z" transform="translate(0)"/><path class="cls-9" d="M33,43.76c-.24-.19-.15-.46-.15-.7V30.15c0-.24-.08-.5.14-.7Q33,36.6,33,43.76Z" transform="translate(0)"/><path class="cls-10" d="M33,43.76q0-7.15,0-14.31l.18,0c0,2.3,0,4.61,0,6.92s0,4.89,0,7.33Z" transform="translate(0)"/><path class="cls-9" d="M17.46,18.79c-.19-.16-.13-.37-.13-.57q0-6.79,0-13.59c.21.24.12.52.12.78Z" transform="translate(0)"/><path class="cls-7" d="M24.79,20.61a8.78,8.78,0,0,1,2.1,1.16c.18.09.34.21.52.32,0,.36.39.46.58.68.34.39.88.54,1.1,1.05l-.05.05C27.58,22.84,26.16,21.77,24.79,20.61Z" transform="translate(0)"/><path class="cls-7" d="M33.67,27.42c-1.57-1.15-3.13-2.31-4.63-3.55l.05-.05a1.16,1.16,0,0,1,.6.29c.86.65,1.75,1.28,2.58,2,.5.41,1.13.69,1.45,1.29Z" transform="translate(0)"/><path class="cls-11" d="M14.87,43.9c-.15.18-.37.14-.57.14H7c-.2,0-.42,0-.57-.14Z" transform="translate(0)"/><path class="cls-10" d="M14.87,43.9H6.42c0-.06,0-.12,0-.18h8.37Z" transform="translate(0)"/><path class="cls-10" d="M33.16,43.72l8.29,0,0,.15H33.69C33.51,43.87,33.27,44,33.16,43.72Z" transform="translate(0)"/><path class="cls-11" d="M33.69,43.91h7.9c-.12.18-.31.15-.49.15h-7A.52.52,0,0,1,33.69,43.91Z" transform="translate(0)"/><path class="cls-7" d="M36.14,29.45c-.71-.81-1.71-1.28-2.47-2l0-.06a13,13,0,0,1,2.59,1.82c.15.11,0,.24-.14.29Z" transform="translate(0)"/><path class="cls-12" d="M24.56,31.89c-.37-.05-.28-.35-.28-.57,0-.9,0-1.8,0-2.69h.29a16.81,16.81,0,0,0,0,3.25Z" transform="translate(0)"/><path class="cls-12" d="M23.74,28.63c0,.9,0,1.8,0,2.7,0,.24.08.53-.31.55a16,16,0,0,0,0-3.24Z" transform="translate(0)"/><path class="cls-12" d="M28,31.9h-.28a32.23,32.23,0,0,0,0-3.26h0c.35.09.27.37.27.6Z" transform="translate(0)"/><path class="cls-12" d="M27.67,36.09,27.74,33c.31.09.22.35.22.56v2.57Z" transform="translate(0)"/><path class="cls-12" d="M20.35,28.63l-.07,3.13a.28.28,0,0,1-.22-.3V29C20.05,28.8,20.12,28.66,20.35,28.63Z" transform="translate(0)"/><path class="cls-12" d="M20.35,32.86,20.28,36a.28.28,0,0,1-.22-.3V33.24C20.05,33,20.12,32.89,20.35,32.86Z" transform="translate(0)"/><path class="cls-4" d="M20.05,23a2.81,2.81,0,0,1,1.78-1.36A11.18,11.18,0,0,1,20.05,23Z" transform="translate(0)"/><path class="cls-9" d="M24.57,28.63h-.16c0-.07.09-.21.13-.21a10.09,10.09,0,0,1,3.15.07,13.69,13.69,0,0,0-3,.13A.1.1,0,0,1,24.57,28.63Z" transform="translate(0)"/><path class="cls-10" d="M14.87,29.48H12c-.06-.3.17-.3.3-.39.18.35.51.18.78.22C13.65,29.4,14.29,29.13,14.87,29.48Z" transform="translate(0)"/><path class="cls-9" d="M27.67,36.09l.29,0c0,.11-.07.25-.19.25a10.49,10.49,0,0,1-2.8-.11c.56,0,1.13,0,1.7,0,.34,0,.72.17,1-.17Z" transform="translate(0)"/><path class="cls-12" d="M20.33,32.71h2.51c.21,0,.46-.08.62.15H20.34Z" transform="translate(0)"/><path class="cls-12" d="M24.56,32.87c.45-.32,1-.11,1.44-.14s1.13,0,1.69,0v.15Z" transform="translate(0)"/><path class="cls-12" d="M23.46,31.86c-.2.3-.5.17-.75.17-.79,0-1.59,0-2.38,0v-.16Z" transform="translate(0)"/><path class="cls-12" d="M23.45,36.09c-.29.34-.67.15-1,.17-.61,0-1.23,0-1.84,0a.28.28,0,0,1-.27-.18Z" transform="translate(0)"/><path class="cls-12" d="M27.68,36.09c-.29.34-.67.15-1,.17-.57,0-1.14,0-1.7,0h-.29l-.11-.19Z" transform="translate(0)"/><path class="cls-12" d="M23.45,28.64l-3,0v-.14h3Z" transform="translate(0)"/><path class="cls-12" d="M24.69,28.62a13.69,13.69,0,0,1,3-.13v.13h-3Z" transform="translate(0)"/><path class="cls-9" d="M23.46,28.49h-3A6.9,6.9,0,0,1,23.46,28.49Z" transform="translate(0)"/><path class="cls-4" d="M19,23.86A1.1,1.1,0,0,1,20.05,23,4,4,0,0,1,19,23.86Z" transform="translate(0)"/><path class="cls-4" d="M16.1,26a1.18,1.18,0,0,1,1.09-.83A4,4,0,0,1,16.1,26Z" transform="translate(0)"/><path class="cls-4" d="M21.82,21.67a1,1,0,0,1,1-.75A3.74,3.74,0,0,1,21.82,21.67Z" transform="translate(0)"/><path class="cls-4" d="M17.19,25.21a1,1,0,0,1,1-.76A3.24,3.24,0,0,1,17.19,25.21Z" transform="translate(0)"/><path class="cls-4" d="M22.83,20.91a.71.71,0,0,1,.77-.6A2.06,2.06,0,0,1,22.83,20.91Z" transform="translate(0)"/><path class="cls-4" d="M18.19,24.45a.73.73,0,0,1,.78-.6A1.91,1.91,0,0,1,18.19,24.45Z" transform="translate(0)"/><path class="cls-4" d="M14.79,27.05a.68.68,0,0,1,.78-.6A2.4,2.4,0,0,1,14.79,27.05Z" transform="translate(0)"/><path class="cls-4" d="M15.56,26.46c0-.36.24-.44.55-.42A1.05,1.05,0,0,1,15.56,26.46Z" transform="translate(0)"/><path class="cls-4" d="M13.78,27.81c0-.27.15-.45.47-.33A.87.87,0,0,1,13.78,27.81Z" transform="translate(0)"/><path class="cls-4" d="M14.27,27.46c-.09-.37.14-.33.37-.29Z" transform="translate(0)"/><path class="cls-7" d="M24.41,20.31a.34.34,0,0,1,.39.31A.63.63,0,0,1,24.41,20.31Z" transform="translate(0)"/><path class="cls-4" d="M23.6,20.31l.16-.12Z" transform="translate(0)"/><path class="cls-7" d="M24.15,20.14c.07-.05.1,0,.1.06A.08.08,0,0,1,24.15,20.14Z" transform="translate(0)"/><path class="cls-4" d="M23.76,20.2c0-.09,0-.14.11-.06A.09.09,0,0,1,23.76,20.2Z" transform="translate(0)"/><path class="cls-4" d="M14.64,27.17c0-.09,0-.14.15-.12Z" transform="translate(0)"/><path class="cls-7" d="M24.25,20.21l.16.1Z" transform="translate(0)"/><path class="cls-13" d="M36.17,29.47c.14,0,.29-.18.14-.29a13,13,0,0,0-2.59-1.82c-.32-.6-.95-.88-1.45-1.29-.83-.68-1.72-1.31-2.58-2a1.16,1.16,0,0,0-.6-.29c-.22-.51-.76-.66-1.1-1.05-.19-.22-.54-.32-.58-.68,1.06.58,2.14,1.15,3.19,1.75q2.91,1.66,5.8,3.35L41.19,30c0,4.25,0,8.49,0,12.74,0,.6-.16.78-.77.77-2.08,0-4.17,0-6.26,0-.58,0-.79-.13-.78-.75,0-3.89,0-7.77,0-11.66,0-1.31.08-1.36,1.37-1.4C35.24,29.69,35.77,29.94,36.17,29.47Z" transform="translate(0)"/><path class="cls-14" d="M6.47,4.64v-.3A.2.2,0,0,1,6.47,4.64Z" transform="translate(0)"/><path class="cls-14" d="M6.47,43.51v-.17C6.54,43.4,6.54,43.45,6.47,43.51Z" transform="translate(0)"/><path class="cls-12" d="M23.52,33a.27.27,0,0,1,.22.3v2.39a.27.27,0,0,1-.23.29Z" transform="translate(0)"/><path class="cls-12" d="M24.59,36.11c-.17,0-.31-.08-.31-.28,0-.89,0-1.77,0-2.66,0-.2.12-.28.29-.31A14.13,14.13,0,0,0,24.59,36.11Z" transform="translate(0)"/><path class="cls-12" d="M27.68,31.9a7.3,7.3,0,0,1-3.12,0h3.12Z" transform="translate(0)"/><path class="cls-8" d="M27.68,31.89H24.57a16.81,16.81,0,0,1,0-3.25.1.1,0,0,0,.12,0h3A32.23,32.23,0,0,1,27.68,31.89Z" transform="translate(0)"/></svg>